<?xml version="1.0" encoding="utf-8"?>
<!-- Generator: Adobe Illustrator 23.0.3, SVG Export Plug-In . SVG Version: 6.00 Build 0)  -->
<svg version="1.1" id="Layer_1" xmlns="http://www.w3.org/2000/svg" xmlns:xlink="http://www.w3.org/1999/xlink" x="0px" y="0px"
	 viewBox="0 0 1000 800" style="enable-background:new 0 0 1000 800;" xml:space="preserve">
<style type="text/css">
	.st0{fill:#852F0A;}
	.st1{fill:#BC6132;}
	.st2{fill:#F8E9D4;}
	.st3{fill:#CB975C;}
	.st4{fill:#1D1D1B;}
	.st5{fill:#FFFFFF;}
	.st6{fill:#390075;}
	.st7{fill:#D9E3EF;}
	.st8{fill:#B9BBCC;}
	.st9{fill:#5F4739;}
	.st10{fill:#EDC391;}
</style>
<g>
	<g>
		<g>
			<g>
				<g>
					<g>
						<path class="st0" d="M474.1,517.9c0,0-9.7,11.7-2.1,17.3c7.6,5.5,16.7-8.1,19-12.4"/>
					</g>
					<g>
						<path class="st0" d="M475.9,536.8c-1.4,0-2.8-0.5-4-1.4c-1.7-1.3-2.7-2.9-3-4.9c-0.7-5.8,4.8-12.5,5-12.8l0.5,0.4
							c-0.1,0.1-5.6,6.8-4.9,12.3c0.2,1.8,1.1,3.4,2.7,4.5c1.5,1.1,3.3,1.5,5.1,1.1c6.9-1.5,13.2-12.9,13.4-13.4l0.6,0.3
							c-0.3,0.5-6.7,12.1-13.9,13.7C476.9,536.8,476.4,536.8,475.9,536.8z"/>
					</g>
				</g>
				<g>
					<g>
						<path class="st0" d="M475.9,539.2c-1.9,0-3.8-0.6-5.5-1.8c-2.3-1.6-3.6-3.9-4-6.6c-0.8-6.7,4.9-13.8,5.6-14.6
							c1-1.2,2.7-1.3,3.9-0.4c1.2,1,1.3,2.7,0.4,3.9c-1.4,1.7-4.8,6.8-4.3,10.4c0.2,1.2,0.7,2.1,1.7,2.8c1,0.7,2,0.9,3.2,0.7
							c4.3-1,9.5-7.8,11.9-12.2c0.7-1.3,2.4-1.8,3.7-1.1c1.3,0.7,1.8,2.4,1.1,3.7c-0.7,1.3-7.4,13.1-15.5,14.9
							C477.3,539.2,476.6,539.2,475.9,539.2z"/>
					</g>
				</g>
			</g>
			<g>
				<g>
					<path class="st1" d="M460.4,299c0,0-10.2-37.6-35.5-30.8c-18.2,4.8-10.5,40.8,8.6,47.5"/>
				</g>
			</g>
			<g>
				<g>
					<path class="st2" d="M424.9,268.1c-4.8,1.3-7.8,4.8-9.3,9.3l0.7,1.2c0,0,6.3-9.6,16-6.5s17.5,15.1,17.5,15.1l5.1-1.4
						C449.6,275.6,439.9,264.2,424.9,268.1z"/>
				</g>
			</g>
			<g>
				<g>
					<path class="st3" d="M425.6,279.8c-8.9,4,2.5,26.6,11.9,30.3S434.4,275.8,425.6,279.8z"/>
				</g>
			</g>
			<g>
				<g>
					<path class="st4" d="M433.5,318.4c-0.3,0-0.6-0.1-0.9-0.2c-13.5-4.8-21.2-21.8-20.7-34.9c0.4-9.4,4.9-15.9,12.3-17.9
						c11.6-3.1,22.1,1.8,30.2,14c5.9,8.8,8.5,18.3,8.6,18.7c0.4,1.5-0.5,3-1.9,3.4c-1.5,0.4-3-0.5-3.4-1.9l0,0
						c-0.1-0.3-9.8-34.9-32.2-28.9c-6.8,1.8-8.1,8.8-8.3,12.8c-0.5,11.1,6.3,25.6,17.1,29.5c1.4,0.5,2.2,2.1,1.7,3.5
						C435.7,317.7,434.6,318.4,433.5,318.4z"/>
				</g>
			</g>
			<g>
				<g>
					<path class="st5" d="M404.5,386c0,0-61.1,89.5,20.6,122.3S596,526.6,608,471.6c11.3-52.2-5-87.5-5-87.5"/>
				</g>
			</g>
			<g>
				<g>
					<path class="st1" d="M608,471.6c11.3-52.2-5-87.5-5-87.5s2.3,26.1,1.2,43.5s6.8,42.3-34.1,67.7c-40.9,25.4-58-0.6-89.9-3.6
						s-42.2,5.9-62.7-7.6c-18.9-12.5-36.9-25.7-24-77.9c-12.8,28.4-25.6,79.1,31.6,102C506.9,541,596,526.6,608,471.6z"/>
				</g>
			</g>
			<g>
				<g>
					<path class="st0" d="M382.6,451.5c0.2,21.8,10.1,43.7,42.6,56.7C506.9,541,596,526.6,608,471.6c0-0.1,0-0.1,0-0.2
						c-18.9,41-88,56.5-161.8,34.6c-73.8-21.9-62.9-55.9-62.9-55.9L382.6,451.5z"/>
				</g>
			</g>
			<g>
				<g>
					<path class="st4" d="M511.6,528.4c-27.8,0-58.3-5.9-87.5-17.6c-22.1-8.8-36.1-22.6-41.6-40.8c-11.8-38.7,18.4-83.7,19.7-85.5
						c0.9-1.3,2.6-1.6,3.8-0.7c1.3,0.9,1.6,2.6,0.7,3.8c-0.3,0.4-30,44.7-19,80.9c5,16.6,18,29.1,38.4,37.3
						c53.7,21.5,111.7,23,147.7,3.8c17-9.1,27.9-22.4,31.4-38.5c11-50.6-4.6-85.4-4.8-85.8c-0.6-1.4,0-3,1.3-3.6
						c1.4-0.6,3,0,3.6,1.3c0.7,1.5,16.5,36.7,5.2,89.2c-3.8,17.7-15.7,32.3-34.2,42.2C558.9,523.7,536.3,528.4,511.6,528.4z"/>
				</g>
			</g>
			<g>
				<g>
					<path class="st5" d="M592.8,418.5c5.9-6.8,10.2-14,12.3-21.2c2.3-6,3.9-12.4,4.7-19.1c5.4-48.7-37.1-93.3-94.9-99.7
						c-56.1-6.2-106,25.9-113.8,72.2c-5.3,6.6-8.6,15.4-9.4,26.7c-3.1,44.7,45,71.2,101,77.4c5.1,0.6,10.3,0.8,15.3,0.7
						C543,455.9,574.3,441.5,592.8,418.5z"/>
				</g>
			</g>
			<g>
				<g>
					<path class="st1" d="M455.3,410.4c0,0-14.5,28.5,18.7,42.8s50.5-13.2,49.3-33.6L455.3,410.4z"/>
				</g>
			</g>
			<g>
				<g>
					<path class="st6" d="M498.7,352.2c0,0-7-6.8-3.3-7.3c3.7-0.5,11,0.4,9.4,2.5C502.5,350.4,499.5,353.3,498.7,352.2z"/>
				</g>
			</g>
			<g>
				<g>
					<path class="st1" d="M514.9,278.5c-56.1-6.2-106,25.9-113.8,72.2c-0.3,0.4-0.6,0.8-1,1.2c4.9-1.6,10.9-5.3,17.5-5.1
						c35.9,0.7,38.3,18.5,50.2,11.6c11.9-6.8,18-19,34.1-15.2c19.8,4.7,23.1,22.2,37.4,25.8c14.3,3.6,21.7-13.5,50.8-1.2
						c12.3,5.2,13.6,16.7,16.4,25.4c1.6-4.8,2.7-9.9,3.2-15C615.2,329.5,572.7,284.9,514.9,278.5z"/>
				</g>
			</g>
			<g>
				<g>
					<path class="st7" d="M514.9,278.5c-46.1-5.1-88.1,15.7-105.9,49l1.4,1.1c0,0,57.2-81.7,159-27.2l-0.7-3.5
						C553.6,287.7,535.2,280.7,514.9,278.5z"/>
				</g>
			</g>
			<g>
				<g>
					<path class="st8" d="M509.1,278c-1-0.1-2-0.1-3.1-0.2c-0.5,0-1,0-1.6,0c-0.9,0-1.9-0.1-2.8-0.1c-0.6,0-1.1,0-1.7,0
						c-0.9,0-1.8,0-2.7,0c-0.1,0-0.3,0-0.4,0c-0.1,1.6-0.1,3.3-0.2,5c10.3-0.4,21.5,0.5,33.4,3.4c0.5-1.3,0.9-2.6,1.3-3.8
						c-5.8-1.6-9-2.8-14.6-3.6c-0.7-0.1-1.4-0.2-2.1-0.3c-1.5-0.2-3-0.3-4.4-0.4C510,278,509.6,278,509.1,278z"/>
				</g>
			</g>
			<g>
				<g>
					<path class="st4" d="M396.9,407.4c-1,0-2-0.6-2.5-1.5c-4.3-8.9-6.1-18.5-5.4-28.7c0.8-11.2,4-20.5,9.6-27.7
						c8.5-47.8,59.6-80.1,116.7-73.8c59.2,6.6,102.9,52.7,97.4,102.8c-0.7,6.7-2.4,13.4-4.8,19.8c-0.5,1.4-2.1,2.1-3.6,1.6
						c-1.4-0.5-2.1-2.1-1.6-3.6c2.3-5.9,3.8-12.1,4.5-18.4c5.2-47.1-36.3-90.5-92.5-96.7c-54.5-6-103.1,24.7-110.8,70
						c-0.1,0.5-0.3,0.9-0.6,1.3c-5.2,6.5-8.1,14.7-8.8,25.2c-0.6,9.2,1,17.9,4.9,25.9c0.7,1.4,0.1,3-1.3,3.7
						C397.7,407.3,397.3,407.4,396.9,407.4z"/>
				</g>
			</g>
			<g>
				<g>
					<path class="st1" d="M570.3,311.9c0,0,20.2-29.8,41.4-14.3c15.2,11.1-2.1,40.3-22.3,39.7"/>
				</g>
			</g>
			<g>
				<g>
					<path class="st2" d="M616,307.4l1-1.8c-0.7-3.1-2.5-5.8-5.3-7.9c-15.5-11.3-30.4,1.6-37.4,9.3l0.1,1
						C574.5,307.9,597.4,286.7,616,307.4z"/>
				</g>
			</g>
			<g>
				<g>
					<path class="st4" d="M569.6,311.4c0.2-2.7,1.4-4.7,2.8-6.6c1.4-1.9,3.1-3.4,4.9-4.9c1.8-1.5,3.6-2.9,5.6-4.2
						c2-1.3,4.1-2.4,6.3-3.3c2.3-0.9,4.7-1.6,7.1-1.8c0.6,0,1.2-0.1,1.9-0.1l1.9,0l1.9,0.2c0.6,0.1,1.2,0.2,1.9,0.4
						c2.4,0.6,4.8,1.5,6.9,2.8c0.5,0.3,1,0.7,1.5,1c0.5,0.3,1,0.7,1.5,1.1c0.5,0.4,1,0.8,1.5,1.3c0.5,0.5,0.9,0.9,1.3,1.5
						c1.7,2.1,2.7,4.6,3.2,7.2c0.5,2.6,0.4,5.1,0,7.6c-0.9,4.9-3.1,9.3-5.9,13.2c-2.9,3.8-6.4,7.2-10.6,9.6
						c-1.1,0.6-2.1,1.2-3.3,1.6c-0.5,0.3-1.1,0.5-1.7,0.7l-0.9,0.4c-0.3,0.1-0.6,0.2-0.9,0.3c-0.6,0.2-1.2,0.4-1.8,0.4
						c-0.6,0.1-1.2,0.1-1.9,0.1c-0.6-0.1-1.3-0.2-1.9-0.4c-0.6-0.3-1.2-0.6-1.8-1.1c-0.5-0.5-0.5-1.2-0.1-1.7c0,0,0,0,0,0l0.1-0.1
						c0.5-0.5,1-0.9,1.5-1.2c0.5-0.3,1-0.6,1.4-0.7c0.5-0.2,0.9-0.4,1.4-0.5c0.5-0.1,0.9-0.3,1.4-0.4c0.2-0.1,0.5-0.1,0.7-0.1
						l0.7-0.2c0.5-0.1,1-0.3,1.4-0.5c0.9-0.4,1.8-0.9,2.7-1.3c3.5-2,6.5-4.9,8.9-8.1c2.4-3.3,4.2-7,4.9-10.9
						c0.7-3.8,0.1-7.7-2.1-10.4c-0.2-0.4-0.6-0.7-0.9-1c-0.3-0.3-0.7-0.6-1-0.9c-0.3-0.3-0.8-0.6-1.2-0.8c-0.4-0.3-0.8-0.6-1.2-0.8
						c-1.7-1-3.5-1.7-5.4-2.2c-3.7-0.9-7.7-0.4-11.4,1.1c-1.9,0.7-3.7,1.7-5.4,2.8c-1.7,1.1-3.4,2.4-4.9,3.9c-1.5,1.5-2.9,3-4.5,4.5
						c-0.8,0.7-1.5,1.5-2.4,2.1c-0.9,0.6-1.9,1.2-3.1,1.7l-0.1,0c-0.6,0.2-1.2-0.1-1.4-0.6C569.6,311.7,569.6,311.6,569.6,311.4z"/>
				</g>
			</g>
			<g>
				<g>
					<g>
						<g>
							<path class="st4" d="M456.6,336.6c2.6-6.2,8.8-9.6,14-7.6c5.2,2.1,7.3,8.8,4.7,15c-2.6,6.2-8.8,9.6-14,7.6
								C456.1,349.6,454,342.9,456.6,336.6z"/>
						</g>
						<g>
							<path class="st4" d="M464.4,352.6c-1.1,0-2.2-0.2-3.3-0.6c-2.2-0.9-4-2.7-5.1-5.1c-1.3-3.1-1.3-6.9,0.2-10.4l0.3,0.1
								l-0.3-0.1c2.6-6.4,9.1-9.9,14.4-7.8c2.2,0.9,4,2.7,5.1,5.1c1.3,3.1,1.3,6.9-0.2,10.4C473.5,349.3,468.9,352.6,464.4,352.6z
								 M467.4,328.8c-4.2,0-8.5,3.1-10.5,8c-1.4,3.3-1.4,6.9-0.2,9.8c1,2.2,2.6,3.9,4.7,4.8c5,2,11.1-1.3,13.5-7.4
								c1.4-3.3,1.4-6.9,0.2-9.8c-1-2.2-2.6-3.9-4.7-4.8C469.4,329,468.4,328.8,467.4,328.8z"/>
						</g>
					</g>
				</g>
				<g>
					<g>
						<path class="st5" d="M464.5,336.2c1.1-2.7,3.7-4.2,5.8-3.4c2.1,0.8,2.9,3.7,1.8,6.4c-1.1,2.7-3.7,4.2-5.8,3.4
							C464.2,341.7,463.4,338.9,464.5,336.2z"/>
					</g>
					<g>
						<path class="st6" d="M467.5,343.1c-0.5,0-0.9-0.1-1.3-0.3c-0.9-0.4-1.7-1.1-2.1-2.1c-0.6-1.4-0.5-3.1,0.1-4.7l0,0
							c1.2-2.8,4-4.4,6.2-3.5c0.9,0.4,1.7,1.1,2.1,2.1c0.6,1.4,0.5,3.1-0.1,4.7C471.5,341.7,469.5,343.1,467.5,343.1z M464.8,336.3
							c-0.6,1.4-0.6,3-0.1,4.2c0.4,0.9,1,1.5,1.8,1.8c2,0.8,4.4-0.7,5.4-3.2c0.6-1.4,0.6-3,0.1-4.2c-0.4-0.9-1-1.5-1.8-1.8
							C468.2,332.3,465.8,333.8,464.8,336.3L464.8,336.3z"/>
					</g>
				</g>
			</g>
			<g>
				<g>
					<path class="st3" d="M607.5,309.1c6.5,7.2-13,23.3-23.1,23C574.4,331.8,601,301.9,607.5,309.1z"/>
				</g>
			</g>
			<g>
				<g>
					<path class="st9" d="M610.4,311.6c-0.4-0.6-1-1.2-1.6-1.6c-0.6-0.5-1.2-0.8-1.9-0.9c-1.3-0.3-2.7-0.1-4.1,0.4
						c-1.3,0.5-2.8,1.4-4.1,2.3c-1.4,0.9-2.7,1.8-4,2.9c-2.6,2-5,4.3-7.2,6.7c-1,1.2-2,2.5-2.8,3.9c-0.8,1.4-1.4,2.9-1.6,4.5l0,0
						c0,0.3-0.3,0.6-0.7,0.5c-0.3,0-0.5-0.2-0.5-0.5c-0.3-1.8,0-3.8,0.7-5.5c0.3-0.9,0.7-1.7,1.1-2.5c0.4-0.8,0.9-1.6,1.4-2.3
						c2-3,4.5-5.5,7.3-7.8c1.4-1.1,2.8-2.2,4.4-3.1c1.6-0.9,3.1-1.7,5-2.3c0.5-0.1,1-0.2,1.5-0.3l0.8-0.1c0.3,0,0.5,0,0.8,0
						c0.3,0,0.5,0,0.8,0.1c0.3,0,0.5,0.1,0.8,0.2c0.5,0.1,1,0.3,1.5,0.5c0.9,0.5,1.7,1.1,2.4,1.9c0.6,0.8,1.1,1.6,1.4,2.5
						c0.1,0.3-0.1,0.7-0.4,0.8C610.8,312,610.6,311.9,610.4,311.6L610.4,311.6z"/>
				</g>
			</g>
			<g>
				<g>
					<path class="st9" d="M420.3,282.1c0.2-0.6,0.5-1.1,0.9-1.6c0.2-0.2,0.4-0.5,0.6-0.7c0.2-0.2,0.5-0.4,0.8-0.5
						c1.1-0.7,2.5-0.8,3.8-0.6c0.3,0,0.6,0.1,0.9,0.2c0.3,0.1,0.6,0.2,0.9,0.3c0.5,0.2,1.1,0.5,1.6,0.8c0.5,0.3,1,0.6,1.5,0.9
						c0.5,0.3,1,0.7,1.4,1.1c1.8,1.5,3.4,3.4,4.6,5.4c0.6,1,1.1,2.1,1.5,3.2c0.2,0.6,0.4,1.1,0.5,1.7c0.1,0.6,0.2,1.1,0.3,1.9
						c0.1,1-0.6,1.9-1.6,2c-0.9,0.1-1.7-0.5-1.9-1.3l-0.1-0.2c-0.1-0.4-0.3-0.9-0.4-1.3c-0.2-0.5-0.3-0.9-0.5-1.4
						c-0.4-0.9-0.8-1.8-1.2-2.7c-0.9-1.8-2-3.4-3.3-4.9c-0.3-0.4-0.7-0.7-1.1-1.1c-0.4-0.4-0.7-0.7-1.1-1c-0.2-0.2-0.4-0.3-0.6-0.4
						l-0.6-0.4c-0.2-0.1-0.4-0.2-0.6-0.3c-0.2-0.1-0.4-0.2-0.6-0.3c-0.9-0.3-1.8-0.4-2.6-0.2c-0.9,0.2-1.7,0.9-2.4,1.7l0,0
						c-0.1,0.1-0.3,0.1-0.4,0C420.3,282.3,420.2,282.2,420.3,282.1z"/>
				</g>
			</g>
			<g>
				<g>
					<g>
						<path class="st10" d="M444.8,400.1c0,0,19.8-14.4,26.6-3.9c6.8,10.5-7.4,22.3-19.9,22.3"/>
					</g>
					<g>
						<path class="st6" d="M451.6,418.8C451.6,418.8,451.6,418.8,451.6,418.8l-0.1-0.6c0,0,0,0,0.1,0c7.8,0,16.5-4.8,19.8-11
							c1.4-2.6,2.5-6.6-0.3-10.8c-1.2-1.9-3-3.1-5.3-3.5c-8.3-1.5-20.8,7.4-20.9,7.5l-0.4-0.5c0.5-0.4,12.8-9.2,21.4-7.6
							c2.4,0.5,4.4,1.7,5.7,3.8c2.3,3.6,2.4,7.5,0.3,11.5C468.4,414,459.7,418.8,451.6,418.8z"/>
					</g>
				</g>
				<g>
					<g>
						<path class="st4" d="M444.6,399.8c0.9-1.1,1.9-2.1,3-3.1c1.1-0.9,2.2-1.8,3.4-2.6c2.4-1.5,5-2.8,7.9-3.6
							c1.4-0.4,3-0.6,4.6-0.7c1.6,0,3.3,0.2,4.9,0.9c1.6,0.6,3.1,1.7,4.2,3.1l0.8,1l0.6,1c0.4,0.7,0.7,1.5,1,2.3
							c0.5,1.6,0.7,3.3,0.5,5c-0.2,1.7-0.6,3.3-1.3,4.7c-1.4,2.9-3.5,5.2-5.9,7c-1.2,0.9-2.5,1.7-3.8,2.4c-1.3,0.7-2.7,1.2-4.1,1.6
							c-2.8,0.7-5.9,0.9-8.7-0.1c-0.2-0.1-0.3-0.3-0.2-0.5c0-0.1,0.1-0.2,0.2-0.2l0,0c2.7-1,5-1.9,7.3-3.1c1.1-0.6,2.2-1.1,3.3-1.8
							c1.1-0.7,2.1-1.4,3-2.1c1.9-1.5,3.5-3.3,4.6-5.3c1.1-2,1.4-4.2,0.8-6.2c-0.2-0.5-0.4-1-0.6-1.5l-0.4-0.7
							c-0.2-0.2-0.3-0.4-0.5-0.6c-0.7-0.8-1.4-1.3-2.4-1.6c-1.9-0.6-4.3-0.4-6.7,0.1c-2.4,0.5-4.9,1.4-7.3,2.3
							c-2.5,0.9-5,1.9-7.7,2.8l0,0c-0.2,0.1-0.4,0-0.5-0.2C444.5,400,444.5,399.9,444.6,399.8z"/>
					</g>
				</g>
			</g>
			<g>
				<g>
					<g>
						<path class="st10" d="M540.7,417.1c0,0-12.2-21.2-22.7-14.5c-10.5,6.8-2.4,23.4,9,28.5"/>
					</g>
					<g>
						<path class="st6" d="M526.8,431.4c-7.4-3.3-13.4-11.3-14-18.7c-0.3-4.5,1.4-8,5-10.4c2-1.3,4.3-1.7,6.7-1.1
							c8.5,2.1,16.1,15.1,16.4,15.7l-0.6,0.3c-0.1-0.1-7.8-13.4-16-15.4c-2.2-0.5-4.3-0.2-6.2,1c-4.3,2.8-4.9,6.8-4.7,9.8
							c0.5,7,6.5,15,13.6,18.2L526.8,431.4z"/>
					</g>
				</g>
				<g>
					<g>
						<path class="st4" d="M540.3,417.3c-2.1-1.9-4-3.8-5.9-5.7c-1.9-1.8-3.8-3.6-5.7-5.1c-2-1.5-4-2.7-6-2.9
							c-1-0.1-1.9,0.1-2.8,0.5c-0.2,0.1-0.4,0.2-0.7,0.4l-0.7,0.5c-0.4,0.3-0.8,0.7-1.2,1.1c-1.4,1.6-2,3.7-1.8,6
							c0.2,2.3,0.9,4.6,2,6.8c0.5,1.1,1.2,2.2,1.9,3.2c0.7,1,1.5,2,2.3,3c1.6,2,3.4,3.8,5.4,5.8l0,0c0.2,0.2,0.2,0.4,0,0.6
							c-0.1,0.1-0.2,0.1-0.3,0.1c-2.9-0.3-5.7-1.7-8-3.5c-1.1-0.9-2.2-2-3.1-3.2c-1-1.1-1.8-2.4-2.5-3.7c-1.4-2.6-2.4-5.6-2.5-8.8
							c0-1.6,0.2-3.3,0.7-4.8c0.5-1.6,1.4-3.1,2.5-4.3c0.6-0.6,1.2-1.2,1.8-1.7l1-0.7l1.1-0.6c1.5-0.8,3.4-1.2,5.1-1.1
							c1.7,0.1,3.4,0.6,4.8,1.2c1.4,0.7,2.7,1.5,3.9,2.5c2.3,1.9,4.2,4.1,5.7,6.5c0.8,1.2,1.5,2.4,2.1,3.7c0.6,1.3,1.1,2.6,1.5,4
							c0.1,0.2-0.1,0.4-0.3,0.5C540.6,417.4,540.4,417.4,540.3,417.3L540.3,417.3z"/>
					</g>
				</g>
			</g>
			<g>
				<g>
					<path class="st9" d="M551.2,317.9c5.4,8.9-12,15.1-15.6,7.3C531.9,317.4,547,310.9,551.2,317.9z"/>
				</g>
			</g>
			<g>
				<g>
					<path class="st9" d="M463.6,307.2c-7.4,7.4,8,17.6,13.4,10.9S469.4,301.4,463.6,307.2z"/>
				</g>
			</g>
			<g>
				<g>
					<g>
						<path class="st10" d="M522.4,473.8c0,0,5.1-24,17.2-20.7c12,3.2,9.4,21.6,0.2,29.9"/>
					</g>
					<g>
						<path class="st6" d="M540,483.2l-0.4-0.5c5.8-5.2,9-14.6,7.4-21.5c-0.7-2.9-2.5-6.6-7.4-7.9c-2.2-0.6-4.3-0.3-6.2,0.9
							c-7.2,4.4-10.5,19.4-10.5,19.6l-0.6-0.1c0.1-0.6,3.4-15.4,10.8-20c2.1-1.3,4.4-1.6,6.7-1c4.1,1.1,6.9,4,7.9,8.3
							C549.3,468.3,546,477.8,540,483.2z"/>
					</g>
				</g>
				<g>
					<g>
						<path class="st4" d="M522.1,473.7c-0.1-1.4,0-2.9,0.2-4.3c0.2-1.4,0.4-2.8,0.8-4.2c0.7-2.7,1.8-5.4,3.5-7.9
							c0.8-1.3,1.8-2.5,2.9-3.5c1.2-1.1,2.6-2,4.2-2.6c1.6-0.6,3.5-0.8,5.2-0.5l1.3,0.3l1.2,0.4c0.8,0.3,1.5,0.6,2.2,1
							c1.4,0.8,2.7,2,3.7,3.3c1,1.3,1.7,2.9,2.2,4.4c0.9,3.1,0.9,6.2,0.3,9.2c-0.3,1.5-0.7,2.9-1.2,4.3c-0.5,1.4-1.2,2.7-2,4
							c-1.6,2.5-3.8,4.6-6.5,5.8c-0.2,0.1-0.4,0-0.5-0.2c0-0.1,0-0.2,0-0.3l0,0c1.3-2.5,2.4-4.8,3.4-7.2c0.5-1.2,0.9-2.3,1.3-3.5
							c0.3-1.2,0.6-2.4,0.8-3.6c0.4-2.4,0.4-4.9-0.1-7c-0.5-2.2-1.7-4-3.6-5.1c-0.5-0.3-0.9-0.5-1.5-0.7l-0.8-0.2
							c-0.3,0-0.5-0.1-0.8-0.1c-1-0.1-1.9,0-2.8,0.4c-1.8,0.8-3.4,2.6-4.8,4.6c-1.4,2-2.7,4.3-3.9,6.6c-1.2,2.3-2.5,4.8-3.8,7.2l0,0
							c-0.1,0.2-0.3,0.3-0.5,0.1C522.1,474,522.1,473.9,522.1,473.7z"/>
					</g>
				</g>
				<g>
					<g>
						<path class="st4" d="M545.4,459.1l-5.3,6.3l2-8c0.3-1,1.3-1.6,2.3-1.4c1,0.3,1.6,1.3,1.4,2.3
							C545.7,458.6,545.6,458.9,545.4,459.1z"/>
					</g>
				</g>
				<g>
					<g>
						<path class="st4" d="M538.1,455.8l-4.6,7l1.2-8.3c0.1-1,1.1-1.7,2.1-1.6c1,0.1,1.7,1.1,1.6,2.1
							C538.4,455.3,538.2,455.6,538.1,455.8z"/>
					</g>
				</g>
			</g>
			<g>
				<g>
					<g>
						<path class="st10" d="M441.1,462.6c0,0-1.7-24.4-14.1-22.9s-12.4,20-4.3,29.6"/>
					</g>
					<g>
						<path class="st6" d="M422.4,469.5c-5.2-6.2-7.1-16.1-4.4-22.9c1.6-4.2,4.7-6.6,9-7.2c2.4-0.3,4.6,0.4,6.5,1.9
							c6.7,5.6,7.9,20.6,7.9,21.3l-0.6,0c0-0.2-1.2-15.5-7.7-20.8c-1.8-1.5-3.8-2.1-6-1.8c-5,0.6-7.4,4-8.5,6.8
							c-2.6,6.5-0.7,16.3,4.3,22.3L422.4,469.5z"/>
					</g>
				</g>
				<g>
					<g>
						<path class="st4" d="M440.8,462.6c-1-1.3-1.6-2.5-2.1-3.8c-0.5-1.3-0.7-2.5-1.1-3.8c-0.7-2.5-1.5-5-2.6-7.2
							c-1-2.2-2.4-4.2-4.1-5.2c-0.8-0.5-1.8-0.8-2.8-0.8c-0.3,0-0.5,0-0.8,0l-0.8,0.1c-0.5,0.1-1.1,0.3-1.5,0.5
							c-2,0.8-3.5,2.4-4.4,4.5c-0.9,2.1-1.3,4.6-1.1,7c0.1,1.2,0.3,2.5,0.5,3.7c0.2,1.2,0.4,2.4,0.7,3.7c0.5,2.5,1.3,4.9,2.3,7.6
							l0,0c0.1,0.2,0,0.4-0.2,0.5c-0.1,0-0.2,0-0.3,0c-2.5-1.5-4.4-3.9-5.7-6.6c-0.6-1.3-1.1-2.7-1.5-4.2c-0.3-1.5-0.4-3-0.4-4.5
							c0.1-3,0.4-6.1,1.7-9c0.6-1.5,1.5-2.9,2.7-4.1c1.1-1.2,2.6-2.2,4.1-2.8c0.8-0.3,1.6-0.6,2.4-0.7c0.4-0.1,0.8-0.1,1.2-0.2
							l1.3-0.1c1.7,0,3.5,0.4,5.1,1.2c1.5,0.8,2.8,2,3.8,3.2c1,1.2,1.8,2.6,2.5,3.9c1.3,2.7,2.1,5.5,2.7,8.3
							c0.5,2.8,0.9,5.7-0.7,8.6c-0.1,0.2-0.4,0.3-0.5,0.2C440.9,462.7,440.8,462.7,440.8,462.6L440.8,462.6z"/>
					</g>
				</g>
				<g>
					<g>
						<path class="st4" d="M429.9,440.4l0.8,9.3l-4.3-8.2c-0.5-0.9-0.1-2,0.8-2.5c0.9-0.5,2-0.1,2.5,0.8
							C429.8,439.9,429.9,440.1,429.9,440.4z"/>
					</g>
				</g>
				<g>
					<g>
						<path class="st4" d="M424.1,443.1l0.4,8.4l-3.9-7.4c-0.5-0.9-0.1-2,0.8-2.5c0.9-0.5,2-0.1,2.5,0.8
							C424,442.6,424.1,442.9,424.1,443.1z"/>
					</g>
				</g>
			</g>
			<g>
				<g>
					<path class="st4" d="M461.8,404.8c1.5-0.9,3-1.8,4.5-2.6c0.8-0.4,1.5-0.8,2.4-1.2c0.4-0.2,0.8-0.4,1.3-0.5
						c0.2-0.1,0.5-0.2,0.7-0.2c0.2-0.1,0.6-0.1,1-0.1c0.8,0,1.4,0.6,1.4,1.3c0,0.8-0.6,1.4-1.3,1.4c-0.1,0-0.1,0-0.2,0l-0.2,0
						c-0.1,0-0.1-0.1-0.3-0.1l-0.2,0l-0.3,0c-0.4,0-0.8,0.1-1.2,0.2c-0.8,0.1-1.6,0.3-2.5,0.5C465.2,403.8,463.5,404.3,461.8,404.8z
						"/>
				</g>
			</g>
			<g>
				<g>
					<path class="st4" d="M460.1,399.1c1.6-0.9,3.2-1.8,4.8-2.6c0.8-0.4,1.7-0.8,2.6-1.1c0.5-0.2,0.9-0.3,1.5-0.4
						c0.3,0,0.6-0.1,0.9-0.1c0.3,0,0.7,0,1.3,0.3c0.6,0.4,0.8,1.3,0.4,1.9c-0.4,0.6-1.3,0.8-1.9,0.4c0.1,0.1,0.1,0,0-0.1
						c-0.1,0-0.3-0.1-0.5-0.1c-0.4,0-0.8,0-1.2,0c-0.8,0.1-1.7,0.2-2.6,0.4C463.6,398.2,461.8,398.6,460.1,399.1z"/>
				</g>
			</g>
			<g>
				<g>
					<path class="st4" d="M514.8,407c0.9,0.5,1.6,1,2.4,1.5c0.8,0.5,1.5,1.1,2.3,1.6c0.7,0.6,1.5,1.2,2.1,1.9
						c0.6,0.7,1.3,1.5,1.4,2.4c-0.3-0.9-1.1-1.4-1.8-1.9c-0.8-0.5-1.6-0.9-2.4-1.2c-0.8-0.4-1.7-0.7-2.5-1c-0.8-0.3-1.7-0.6-2.5-0.8
						c-0.7-0.2-1.2-1-1-1.7c0.2-0.7,1-1.2,1.7-1C514.6,406.9,514.7,406.9,514.8,407z"/>
				</g>
			</g>
			<g>
				<g>
					<path class="st4" d="M518.6,403c1.3,0.9,2.6,1.8,3.9,2.7c0.6,0.5,1.3,0.9,1.9,1.4c0.6,0.5,1.3,1,1.8,1.6
						c-0.6-0.5-1.4-0.7-2.1-1c-0.7-0.3-1.5-0.5-2.2-0.8c-1.5-0.5-3-1-4.4-1.4l0,0c-0.7-0.2-1.2-1-0.9-1.7s1-1.2,1.7-0.9
						C518.4,402.9,518.5,402.9,518.6,403z"/>
				</g>
			</g>
			<g>
				<g>
					<g>
						<path class="st4" d="M499.3,353.2c0,0-0.1,0-0.1,0c-3.3-0.1-5.7-4.8-6.2-5.7c-0.4-0.9,0-2,0.9-2.4c0.9-0.4,2,0,2.4,0.9l0,0
							c0.8,1.8,2.3,3.6,3,3.6c0,0,0,0,0,0c1,0,2.8-1.4,3.8-2.5c0.7-0.8,1.8-0.8,2.6-0.1c0.8,0.7,0.8,1.8,0.1,2.6
							C505.2,350.1,502.3,353.2,499.3,353.2z"/>
					</g>
				</g>
				<g>
					<g>
						<path class="st4" d="M498.8,356.5c-0.1,0-0.1,0-0.2,0c-1-0.1-1.7-1-1.6-2l0.4-3.2c0.1-1,1-1.7,2-1.6c1,0.1,1.7,1,1.6,2
							l-0.4,3.2C500.5,355.8,499.7,356.5,498.8,356.5z"/>
					</g>
				</g>
				<g>
					<g>
						<path class="st4" d="M503.6,359.2c-2.3,0-4.3-1.3-5.4-2.3c-1.4,1.1-2.8,1.5-4.2,1.1c-2.9-0.7-4.2-4.1-4.3-4.5
							c-0.3-0.7,0.1-1.5,0.8-1.8c0.7-0.3,1.5,0.1,1.8,0.8c0.2,0.6,1.1,2.4,2.3,2.7c0.9,0.2,2-0.6,2.7-1.3c0.3-0.3,0.6-0.4,1-0.4
							c0.4,0,0.7,0.2,1,0.4c0.7,0.7,2.8,2.4,4.7,2.3c1-0.1,2-0.7,2.8-2c0.4-0.6,1.3-0.8,1.9-0.4c0.6,0.4,0.8,1.3,0.4,1.9
							c-1.3,2-2.9,3-4.8,3.2C503.9,359.2,503.8,359.2,503.6,359.2z"/>
					</g>
				</g>
			</g>
			<g>
				<g>
					
						<ellipse transform="matrix(0.9878 -0.1559 0.1559 0.9878 -39.1931 77.5752)" class="st7" cx="475.1" cy="288.7" rx="7.8" ry="4.6"/>
				</g>
			</g>
			<g>
				<g>
					<g>
						<path class="st4" d="M408.9,344.9c-1.5-0.3-2.9-0.8-4.2-1.4c-1.3-0.6-2.5-1.3-3.7-2.1c-1.2-0.8-2.4-1.6-3.5-2.5
							c-1.1-0.9-2.2-1.9-3.2-3.1c-0.2-0.3-0.2-0.7,0.1-0.9c0.2-0.1,0.4-0.2,0.6-0.1c1.5,0.4,2.8,0.9,4.1,1.5c1.3,0.6,2.6,1.3,3.8,2
							c1.2,0.7,2.4,1.5,3.5,2.4c1.1,0.9,2.2,1.9,3.1,3.1c0.2,0.3,0.2,0.7-0.1,0.9C409.3,344.9,409.1,344.9,408.9,344.9z"/>
					</g>
				</g>
				<g>
					<g>
						<path class="st4" d="M406.1,351.5c-1.3,0.3-2.6,0.4-3.8,0.3c-1.2,0-2.4-0.2-3.6-0.5c-1.2-0.2-2.4-0.6-3.6-1
							c-1.2-0.4-2.3-0.9-3.5-1.5c-0.3-0.2-0.4-0.6-0.2-0.9c0.1-0.2,0.3-0.3,0.4-0.3c1.3-0.2,2.5-0.3,3.8-0.2c1.2,0,2.5,0.2,3.7,0.4
							c1.2,0.2,2.4,0.5,3.6,0.8c1.2,0.4,2.3,0.9,3.4,1.7c0.3,0.2,0.4,0.6,0.2,0.9C406.4,351.3,406.2,351.4,406.1,351.5z"/>
					</g>
				</g>
				<g>
					<g>
						<path class="st4" d="M406.1,359.8c-1.4,0.7-2.9,1.1-4.3,1.4c-1.5,0.3-2.9,0.5-4.4,0.6c-1.5,0.1-3,0.1-4.5,0.1
							c-1.5-0.1-3-0.2-4.5-0.5c-0.3-0.1-0.6-0.4-0.5-0.8c0-0.2,0.2-0.4,0.4-0.5c1.4-0.6,2.9-1,4.3-1.3c1.5-0.3,2.9-0.5,4.4-0.7
							c1.5-0.2,3-0.2,4.4-0.2c1.5,0.1,3,0.2,4.5,0.6c0.3,0.1,0.5,0.5,0.4,0.8C406.4,359.6,406.3,359.7,406.1,359.8z"/>
					</g>
				</g>
			</g>
			<g>
				<g>
					<g>
						<path class="st4" d="M602,368.5c1.2-1,2.5-1.7,3.8-2.3c1.3-0.6,2.7-1.1,4-1.5c1.4-0.4,2.8-0.8,4.2-1.1
							c1.4-0.3,2.9-0.5,4.4-0.5c0.4,0,0.6,0.3,0.6,0.6c0,0.2-0.1,0.4-0.3,0.5c-1.2,0.9-2.5,1.6-3.8,2.2c-1.3,0.6-2.6,1.2-4,1.6
							c-1.3,0.5-2.7,0.9-4.1,1.2c-1.4,0.3-2.9,0.5-4.4,0.4c-0.4,0-0.6-0.3-0.6-0.7C601.8,368.7,601.9,368.6,602,368.5z"/>
					</g>
				</g>
				<g>
					<g>
						<path class="st4" d="M603.6,375.5c1.3-0.5,2.5-0.7,3.7-0.8c1.2-0.1,2.5-0.1,3.7,0c1.2,0.1,2.4,0.3,3.6,0.5
							c1.2,0.3,2.4,0.6,3.6,1.1c0.3,0.1,0.5,0.5,0.3,0.9c-0.1,0.2-0.2,0.3-0.4,0.4c-1.3,0.4-2.5,0.6-3.7,0.7
							c-1.2,0.1-2.5,0.1-3.7,0.1c-1.2,0-2.4-0.2-3.7-0.4c-1.2-0.3-2.4-0.6-3.6-1.2c-0.3-0.2-0.4-0.6-0.3-0.9
							C603.4,375.6,603.5,375.5,603.6,375.5z"/>
					</g>
				</g>
				<g>
					<g>
						<path class="st4" d="M601.9,383.6c1.6-0.1,3.1,0.2,4.5,0.5c1.5,0.3,2.9,0.7,4.3,1.3c1.4,0.5,2.8,1.1,4.1,1.7
							c1.3,0.7,2.7,1.4,3.9,2.3c0.3,0.2,0.3,0.6,0.1,0.9c-0.1,0.2-0.3,0.3-0.5,0.3c-1.5,0-3-0.3-4.5-0.6c-1.5-0.3-2.9-0.7-4.3-1.1
							c-1.4-0.4-2.8-1-4.1-1.6c-1.3-0.7-2.7-1.4-3.9-2.4c-0.3-0.2-0.3-0.6-0.1-0.9C601.6,383.7,601.7,383.6,601.9,383.6z"/>
					</g>
				</g>
			</g>
			<g>
				<g>
					<g>
						<g>
							<path class="st4" d="M553,350.5c-0.6-6.7-5.6-11.8-11.1-11.4c-5.5,0.4-9.5,6.3-8.9,13c0.6,6.7,5.6,11.8,11.1,11.4
								C549.6,363,553.6,357.2,553,350.5z"/>
						</g>
						<g>
							<path class="st4" d="M543.4,363.8c-5.4,0-10.2-5.1-10.8-11.7c-0.3-3.7,0.7-7.4,2.9-9.9c1.7-2,3.9-3.2,6.4-3.4
								c5.7-0.5,10.9,4.8,11.5,11.7l0,0c0.3,3.7-0.7,7.4-2.9,9.9c-1.7,2-3.9,3.2-6.4,3.4C543.9,363.8,543.6,363.8,543.4,363.8z
								 M542.5,339.4c-0.2,0-0.4,0-0.6,0c-2.2,0.2-4.3,1.3-5.9,3.2c-2.1,2.4-3.1,5.9-2.7,9.4c0.6,6.5,5.4,11.5,10.8,11.1
								c2.2-0.2,4.3-1.3,5.9-3.2c2.1-2.4,3.1-5.9,2.7-9.4l0,0C552.1,344.2,547.6,339.4,542.5,339.4z"/>
						</g>
					</g>
				</g>
				<g>
					<g>
						<path class="st5" d="M545.6,347.7c-0.3-2.9-2.3-5.1-4.6-4.9c-2.3,0.2-3.9,2.7-3.6,5.6c0.3,2.9,2.3,5.1,4.6,4.9
							C544.2,353.1,545.8,350.6,545.6,347.7z"/>
					</g>
					<g>
						<path class="st6" d="M541.7,353.6c-2.3,0-4.4-2.3-4.6-5.2c-0.2-1.7,0.3-3.3,1.3-4.5c0.7-0.8,1.6-1.3,2.6-1.4
							c2.4-0.2,4.6,2.1,4.9,5.2l0,0c0.2,1.7-0.3,3.3-1.3,4.5c-0.7,0.8-1.6,1.3-2.6,1.4C541.9,353.6,541.8,353.6,541.7,353.6z
							 M541.3,343.1c-0.1,0-0.2,0-0.2,0c-0.8,0.1-1.6,0.5-2.2,1.2c-0.9,1-1.3,2.5-1.1,4c0.2,2.7,2.2,4.8,4.3,4.6
							c0.8-0.1,1.6-0.5,2.2-1.2c0.9-1,1.3-2.5,1.1-4C545,345.1,543.3,343.1,541.3,343.1z"/>
					</g>
				</g>
			</g>
		</g>
	</g>
	<g>
		<g>
			<path class="st1" d="M196.5,190.4c12.7-8.2,25.6-15.9,38.8-23.3c20,36.6,39.9,73.3,59.9,109.9c-10.3,5.6-20.3,11.6-30.1,18.1
				c-8.5-13-17-26-25.6-39c-15.8,10.7-30.9,22-45.6,34.1c10,11.9,20,23.8,30.1,35.6c-9.2,7.8-18.1,16-26.7,24.5
				c-29.5-29.5-59-59-88.5-88.5c11-11,22.5-21.6,34.4-31.6c11.6,13.7,23.1,27.4,34.7,41.1c15.5-12.8,31.4-25,48.2-36
				C216.2,220.3,206.3,205.4,196.5,190.4z"/>
			<path class="st1" d="M403.7,235.9c-4.4-7.2-6.6-10.7-11.2-17.8c-17.7,4.6-34.9,10-52,16.2c0.3,8.4,0.5,12.6,1,21
				c-11.1,4.4-21.9,9.3-32.6,14.6c-5.9-44.5-8-88.8-6.6-133.7c21.6-8,43.4-14.7,65.7-20.5c26.5,36.1,49.9,73.8,70.2,113.7
				C426.6,231.1,415.1,233.3,403.7,235.9z M340,208.1c12.5-4.5,25.2-8.4,38-11.8c-11.2-16.1-23-31.8-35.4-46.9
				C340.9,168.9,340,188.5,340,208.1z"/>
			<path class="st1" d="M512.4,100c17.5,0,37,4.4,50.5,16c10.1,8.7,15,21.7,13,34.8c-2,12.6-9.8,23.7-20.6,30.3
				c-13,8-29.9,9.6-44.9,9.3c-9.8-0.2-14.6-0.2-24.4,0.1c0.3,11.6,0.7,23.1,1,34.7c-11.4,0.5-22.5,1.3-33.9,2.4
				c-4.6-41.5-9.1-82.9-13.7-124.4C463.9,100.7,488,99.7,512.4,100z M506.9,165.4c8.1,0.1,14.8-1.5,20.2-5.1
				c5.4-3.6,8.4-8.2,8.8-13.9c0.4-5.7-1.8-10.8-7.1-15c-5.3-4.3-12.5-6.5-21.4-6.7c-9.4-0.1-14.1-0.1-23.5,0.2
				c0.4,13.6,0.8,27.2,1.2,40.7C493.8,165.3,498.2,165.3,506.9,165.4z"/>
			<path class="st1" d="M678.1,129.2c16.9,5.4,34.4,15.5,44.1,30.7c7.2,11.3,8.1,25.3,2.1,37.3c-5.7,11.5-16.7,19.6-29.1,22.5
				c-15,3.6-31.8,0-46.2-4.9c-9.3-3.2-14-4.6-23.5-7.3c-3.1,11.1-6.3,22.3-9.4,33.4c-11-2.9-22-5.5-33.2-7.9
				c8.1-40.9,16.2-81.9,24.2-122.8C631.3,115.3,654.7,121.5,678.1,129.2z M653.1,189.9c7.8,2.6,14.7,3,21,1.3
				c6.3-1.8,10.6-5.3,12.7-10.6c2.1-5.3,1.5-10.9-2.4-16.5c-3.8-5.7-10.1-10-18.6-12.9c-9-3-13.6-4.4-22.7-6.9
				c-3.7,13.1-7.4,26.2-11,39.2C640.6,185.9,644.8,187.2,653.1,189.9z"/>
			<path class="st1" d="M853,227c13.2,11.2,25.9,22.8,38.3,34.9c-34.6,4.4-68.2,11.7-101.5,22.3c-8.4,10.7-16.9,21.5-25.3,32.2
				c-9.3-7.3-18.9-14.2-28.7-20.8c7.5-11.4,15-22.8,22.5-34.2c-0.2-34.5-3.2-68.4-8.9-102.4c14.8,7.5,29.4,15.6,43.5,24.5
				c0.7,21.4,0.5,42.6-0.6,64C812.2,239.7,832.3,232.9,853,227z"/>
		</g>
	</g>
	<g>
		<path class="st1" d="M324.2,575h87.6v24.8h-56.4v26.4h51V651h-51v24.4h59.1v24.8h-90.3V575z"/>
		<path class="st1" d="M535.8,700.2l-6-19.9h-47.6l-5.9,19.9H444L481.7,575h48.6L568,700.2H535.8z M489.5,655.5h32.9L506,600.6
			L489.5,655.5z"/>
		<path class="st1" d="M675.8,575v24.8h-31.2v100.4h-31.3V599.8h-31.3V575H675.8z"/>
	</g>
</g>
</svg>
