<?xml version="1.0" encoding="utf-8"?>
<!-- Generator: Adobe Illustrator 23.0.3, SVG Export Plug-In . SVG Version: 6.00 Build 0)  -->
<svg version="1.1" id="Layer_1" xmlns="http://www.w3.org/2000/svg" xmlns:xlink="http://www.w3.org/1999/xlink" x="0px" y="0px"
	 viewBox="0 0 1000 342.9" style="enable-background:new 0 0 1000 342.9;" xml:space="preserve">
<style type="text/css">
	.st0{fill:#852F0A;}
	.st1{fill:#BC6132;}
	.st2{fill:#F8E9D4;}
	.st3{fill:#CB975C;}
	.st4{fill:#1D1D1B;}
	.st5{fill:#FFFFFF;}
	.st6{fill:#390075;}
	.st7{fill:#D9E3EF;}
	.st8{fill:#B9BBCC;}
	.st9{fill:#5F4739;}
	.st10{fill:#EDC391;}
</style>
<g>
	<g>
		<g>
			<g>
				<g>
					<g>
						<path class="st0" d="M144.3,287.5c0,0-9.7,11.7-2.1,17.3s16.7-8.1,19-12.4"/>
					</g>
					<g>
						<path class="st0" d="M146.1,306.3c-1.4,0-2.8-0.5-4-1.4c-1.7-1.3-2.7-2.9-3-4.9c-0.7-5.8,4.8-12.5,5-12.8l0.5,0.4
							c-0.1,0.1-5.6,6.8-4.9,12.3c0.2,1.8,1.1,3.4,2.7,4.5c1.5,1.1,3.3,1.5,5.1,1.1c6.9-1.5,13.2-12.9,13.4-13.4l0.6,0.3
							c-0.3,0.5-6.7,12.1-13.9,13.7C147.1,306.3,146.6,306.3,146.1,306.3z"/>
					</g>
				</g>
				<g>
					<g>
						<path class="st0" d="M146.1,308.8c-1.9,0-3.8-0.6-5.5-1.8c-2.3-1.6-3.6-3.9-4-6.6c-0.8-6.7,4.9-13.8,5.6-14.6
							c1-1.2,2.7-1.3,3.9-0.4c1.2,1,1.3,2.7,0.4,3.9c-1.4,1.7-4.8,6.8-4.3,10.4c0.2,1.2,0.7,2.1,1.7,2.8c1,0.7,2,0.9,3.2,0.7
							c4.3-1,9.5-7.8,11.9-12.2c0.7-1.3,2.4-1.8,3.7-1.1c1.3,0.7,1.8,2.4,1.1,3.7c-0.7,1.3-7.4,13.1-15.5,14.9
							C147.5,308.7,146.8,308.8,146.1,308.8z"/>
					</g>
				</g>
			</g>
			<g>
				<g>
					<path class="st1" d="M130.7,68.5c0,0-10.2-37.6-35.5-30.8c-18.2,4.8-10.5,40.8,8.6,47.5"/>
				</g>
			</g>
			<g>
				<g>
					<path class="st2" d="M95.1,37.6c-4.8,1.3-7.8,4.8-9.3,9.3l0.7,1.2c0,0,6.3-9.6,16-6.5c9.8,3,17.5,15.1,17.5,15.1l5.1-1.4
						C119.8,45.2,110.1,33.7,95.1,37.6z"/>
				</g>
			</g>
			<g>
				<g>
					<path class="st3" d="M95.8,49.3c-8.9,4,2.5,26.6,11.9,30.3S104.6,45.3,95.8,49.3z"/>
				</g>
			</g>
			<g>
				<g>
					<path class="st4" d="M103.7,87.9c-0.3,0-0.6-0.1-0.9-0.2C89.3,83,81.5,65.9,82.1,52.9C82.5,43.5,87,37,94.4,35
						c11.6-3.1,22.1,1.8,30.2,14c5.9,8.8,8.5,18.3,8.6,18.7c0.4,1.5-0.5,3-1.9,3.4c-1.5,0.4-3-0.5-3.4-1.9l0,0
						c-0.1-0.3-9.8-34.9-32.2-28.9c-6.8,1.8-8.1,8.8-8.3,12.8c-0.5,11.1,6.3,25.6,17.1,29.5c1.4,0.5,2.2,2.1,1.7,3.5
						C105.9,87.2,104.8,87.9,103.7,87.9z"/>
				</g>
			</g>
			<g>
				<g>
					<path class="st5" d="M74.7,155.5c0,0-61.1,89.5,20.6,122.3s170.9,18.4,182.8-36.6c11.3-52.2-5-87.5-5-87.5"/>
				</g>
			</g>
			<g>
				<g>
					<path class="st1" d="M278.2,241.1c11.3-52.2-5-87.5-5-87.5s2.3,26.1,1.2,43.5s6.8,42.3-34.1,67.7s-58-0.6-89.9-3.6
						s-42.2,5.9-62.7-7.6c-18.9-12.5-36.9-25.7-24-77.9c-12.8,28.4-25.6,79.1,31.6,102C177.1,310.5,266.3,296.1,278.2,241.1z"/>
				</g>
			</g>
			<g>
				<g>
					<path class="st0" d="M52.8,221c0.2,21.8,10.1,43.7,42.6,56.7c81.8,32.7,170.9,18.4,182.8-36.6c0-0.1,0-0.1,0-0.2
						c-18.9,41-88,56.5-161.8,34.6c-73.8-21.9-62.9-55.9-62.9-55.9L52.8,221z"/>
				</g>
			</g>
			<g>
				<g>
					<path class="st4" d="M181.8,297.9c-27.8,0-58.3-5.9-87.5-17.6c-22.1-8.8-36.1-22.6-41.6-40.8c-11.8-38.7,18.4-83.7,19.7-85.5
						c0.9-1.3,2.6-1.6,3.8-0.7c1.3,0.9,1.6,2.6,0.7,3.8c-0.3,0.4-30,44.7-19,80.9c5,16.6,18,29.1,38.4,37.3
						c53.7,21.5,111.7,23,147.7,3.8c17-9.1,27.9-22.4,31.4-38.5c11-50.6-4.6-85.4-4.8-85.8c-0.6-1.4,0-3,1.3-3.6
						c1.4-0.6,3,0,3.6,1.3c0.7,1.5,16.5,36.7,5.2,89.2c-3.8,17.7-15.7,32.3-34.2,42.2C229.1,293.2,206.5,297.9,181.8,297.9z"/>
				</g>
			</g>
			<g>
				<g>
					<path class="st5" d="M263.1,188c5.9-6.8,10.2-14,12.3-21.2c2.3-6,3.9-12.4,4.7-19.1c5.4-48.7-37.1-93.3-94.9-99.7
						c-56.1-6.2-106,25.9-113.8,72.2c-5.3,6.6-8.6,15.4-9.4,26.7c-3.1,44.7,45,71.2,101,77.4c5.1,0.6,10.3,0.8,15.3,0.7
						C213.2,225.4,244.5,211,263.1,188z"/>
				</g>
			</g>
			<g>
				<g>
					<path class="st1" d="M125.6,180c0,0-14.5,28.5,18.7,42.8s50.5-13.2,49.3-33.6L125.6,180z"/>
				</g>
			</g>
			<g>
				<g>
					<path class="st6" d="M168.9,121.8c0,0-7-6.8-3.3-7.3c3.7-0.5,11,0.4,9.4,2.5C172.7,119.9,169.7,122.8,168.9,121.8z"/>
				</g>
			</g>
			<g>
				<g>
					<path class="st1" d="M185.1,48c-56.1-6.2-106,25.9-113.8,72.2c-0.3,0.4-0.6,0.8-1,1.2c4.9-1.6,10.9-5.3,17.5-5.1
						c35.9,0.7,38.3,18.5,50.2,11.6c11.9-6.8,18-19,34.1-15.2c19.8,4.7,23.1,22.2,37.4,25.8c14.3,3.6,21.7-13.5,50.8-1.2
						c12.3,5.2,13.6,16.7,16.4,25.4c1.6-4.8,2.7-9.9,3.2-15C285.4,99.1,242.9,54.4,185.1,48z"/>
				</g>
			</g>
			<g>
				<g>
					<path class="st7" d="M185.1,48C139,42.9,97.1,63.7,79.3,97l1.4,1.1c0,0,57.2-81.7,159-27.2l-0.7-3.5
						C223.8,57.2,205.4,50.2,185.1,48z"/>
				</g>
			</g>
			<g>
				<g>
					<path class="st8" d="M179.3,47.5c-1-0.1-2-0.1-3.1-0.2c-0.5,0-1,0-1.6,0c-0.9,0-1.9-0.1-2.8-0.1c-0.6,0-1.1,0-1.7,0
						c-0.9,0-1.8,0-2.7,0c-0.1,0-0.3,0-0.4,0c-0.1,1.6-0.1,3.3-0.2,5c10.3-0.4,21.5,0.5,33.4,3.4c0.5-1.3,0.9-2.6,1.3-3.8
						c-5.8-1.6-9-2.8-14.6-3.6c-0.7-0.1-1.4-0.2-2.1-0.3c-1.5-0.2-3-0.3-4.4-0.4C180.2,47.5,179.8,47.5,179.3,47.5z"/>
				</g>
			</g>
			<g>
				<g>
					<path class="st4" d="M67.1,177c-1,0-2-0.6-2.5-1.5c-4.3-8.9-6.1-18.5-5.4-28.7c0.8-11.2,4-20.5,9.6-27.7
						c8.5-47.8,59.6-80.1,116.7-73.8c59.2,6.6,102.9,52.7,97.4,102.8c-0.7,6.7-2.4,13.4-4.8,19.8c-0.5,1.4-2.1,2.1-3.6,1.6
						c-1.4-0.5-2.1-2.1-1.6-3.6c2.3-5.9,3.8-12.1,4.5-18.4c5.2-47.1-36.3-90.5-92.5-96.7c-54.5-6-103.1,24.7-110.8,70
						c-0.1,0.5-0.3,0.9-0.6,1.3c-5.2,6.5-8.1,14.7-8.8,25.2c-0.6,9.2,1,17.9,4.9,25.9c0.7,1.4,0.1,3-1.3,3.7
						C67.9,176.9,67.5,177,67.1,177z"/>
				</g>
			</g>
			<g>
				<g>
					<path class="st1" d="M240.5,81.5c0,0,20.2-29.8,41.4-14.3c15.2,11.1-2.1,40.3-22.3,39.7"/>
				</g>
			</g>
			<g>
				<g>
					<path class="st2" d="M286.3,76.9l1-1.8c-0.7-3.1-2.5-5.8-5.3-7.9c-15.5-11.3-30.4,1.6-37.4,9.3l0.1,1
						C244.7,77.4,267.6,56.2,286.3,76.9z"/>
				</g>
			</g>
			<g>
				<g>
					<path class="st4" d="M239.8,80.9c0.2-2.7,1.4-4.7,2.8-6.6c1.4-1.9,3.1-3.4,4.9-4.9c1.8-1.5,3.6-2.9,5.6-4.2
						c2-1.3,4.1-2.4,6.3-3.3c2.3-0.9,4.7-1.6,7.1-1.8c0.6,0,1.2-0.1,1.9-0.1l1.9,0l1.9,0.2c0.6,0.1,1.2,0.2,1.9,0.4
						c2.4,0.6,4.8,1.5,6.9,2.8c0.5,0.3,1,0.7,1.5,1c0.5,0.3,1,0.7,1.5,1.1c0.5,0.4,1,0.8,1.5,1.3c0.5,0.5,0.9,0.9,1.3,1.5
						c1.7,2.1,2.7,4.6,3.2,7.2c0.5,2.6,0.4,5.1,0,7.6c-0.9,4.9-3.1,9.3-5.9,13.2c-2.9,3.8-6.4,7.2-10.6,9.6
						c-1.1,0.6-2.1,1.2-3.3,1.6c-0.5,0.3-1.1,0.5-1.7,0.7l-0.9,0.4c-0.3,0.1-0.6,0.2-0.9,0.3c-0.6,0.2-1.2,0.4-1.8,0.4
						c-0.6,0.1-1.2,0.1-1.9,0.1c-0.6-0.1-1.3-0.2-1.9-0.4c-0.6-0.3-1.2-0.6-1.8-1.1c-0.5-0.5-0.5-1.2-0.1-1.7c0,0,0,0,0,0l0.1-0.1
						c0.5-0.5,1-0.9,1.5-1.2c0.5-0.3,1-0.6,1.4-0.7c0.5-0.2,0.9-0.4,1.4-0.5c0.5-0.1,0.9-0.3,1.4-0.4c0.2-0.1,0.5-0.1,0.7-0.1
						l0.7-0.2c0.5-0.1,1-0.3,1.4-0.5c0.9-0.4,1.8-0.9,2.7-1.3c3.5-2,6.5-4.9,8.9-8.1c2.4-3.3,4.2-7,4.9-10.9
						c0.7-3.8,0.1-7.7-2.1-10.4c-0.2-0.4-0.6-0.7-0.9-1c-0.3-0.3-0.7-0.6-1-0.9c-0.3-0.3-0.8-0.6-1.2-0.8c-0.4-0.3-0.8-0.6-1.2-0.8
						c-1.7-1-3.5-1.7-5.4-2.2c-3.7-0.9-7.7-0.4-11.4,1.1c-1.9,0.7-3.7,1.7-5.4,2.8c-1.7,1.1-3.4,2.4-4.9,3.9c-1.5,1.5-2.9,3-4.5,4.5
						c-0.8,0.7-1.5,1.5-2.4,2.1c-0.9,0.6-1.9,1.2-3.1,1.7l-0.1,0c-0.6,0.2-1.2-0.1-1.4-0.6C239.8,81.2,239.8,81.1,239.8,80.9z"/>
				</g>
			</g>
			<g>
				<g>
					<g>
						<g>
							<path class="st4" d="M126.8,106.2c2.6-6.2,8.8-9.6,14-7.6c5.2,2.1,7.3,8.8,4.7,15c-2.6,6.2-8.8,9.6-14,7.6
								C126.3,119.1,124.2,112.4,126.8,106.2z"/>
						</g>
						<g>
							<path class="st4" d="M134.6,122.1c-1.1,0-2.2-0.2-3.3-0.6c-2.2-0.9-4-2.7-5.1-5.1c-1.3-3.1-1.3-6.9,0.2-10.4l0.3,0.1
								l-0.3-0.1c2.6-6.4,9.1-9.9,14.4-7.8c2.2,0.9,4,2.7,5.1,5.1c1.3,3.1,1.3,6.9-0.2,10.4C143.7,118.9,139.1,122.1,134.6,122.1z
								 M137.6,98.3c-4.2,0-8.5,3.1-10.5,8c-1.4,3.3-1.4,6.9-0.2,9.8c1,2.2,2.6,3.9,4.7,4.8c5,2,11.1-1.3,13.5-7.4
								c1.4-3.3,1.4-6.9,0.2-9.8c-1-2.2-2.6-3.9-4.7-4.8C139.7,98.5,138.6,98.3,137.6,98.3z"/>
						</g>
					</g>
				</g>
				<g>
					<g>
						<path class="st5" d="M134.7,105.7c1.1-2.7,3.7-4.2,5.8-3.4c2.1,0.8,2.9,3.7,1.8,6.4c-1.1,2.7-3.7,4.2-5.8,3.4
							C134.4,111.3,133.6,108.4,134.7,105.7z"/>
					</g>
					<g>
						<path class="st6" d="M137.7,112.6c-0.5,0-0.9-0.1-1.3-0.3c-0.9-0.4-1.7-1.1-2.1-2.1c-0.6-1.4-0.5-3.1,0.1-4.7l0,0
							c1.2-2.8,4-4.4,6.2-3.5c0.9,0.4,1.7,1.1,2.1,2.1c0.6,1.4,0.5,3.1-0.1,4.7C141.7,111.2,139.7,112.6,137.7,112.6z M135,105.8
							c-0.6,1.4-0.6,3-0.1,4.2c0.4,0.9,1,1.5,1.8,1.8c2,0.8,4.4-0.7,5.4-3.2c0.6-1.4,0.6-3,0.1-4.2c-0.4-0.9-1-1.5-1.8-1.8
							C138.4,101.9,136,103.3,135,105.8L135,105.8z"/>
					</g>
				</g>
			</g>
			<g>
				<g>
					<path class="st3" d="M277.7,78.6c6.5,7.2-13,23.3-23.1,23C244.6,101.3,271.3,71.4,277.7,78.6z"/>
				</g>
			</g>
			<g>
				<g>
					<path class="st9" d="M280.6,81.1c-0.4-0.6-1-1.2-1.6-1.6c-0.6-0.5-1.2-0.8-1.9-0.9c-1.3-0.3-2.7-0.1-4.1,0.4
						c-1.3,0.5-2.8,1.4-4.1,2.3c-1.4,0.9-2.7,1.8-4,2.9c-2.6,2-5,4.3-7.2,6.7c-1,1.2-2,2.5-2.8,3.9c-0.8,1.4-1.4,2.9-1.6,4.5l0,0
						c0,0.3-0.3,0.6-0.7,0.5c-0.3,0-0.5-0.2-0.5-0.5c-0.3-1.8,0-3.8,0.7-5.5c0.3-0.9,0.7-1.7,1.1-2.5c0.4-0.8,0.9-1.6,1.4-2.3
						c2-3,4.5-5.5,7.3-7.8c1.4-1.1,2.8-2.2,4.4-3.1c1.6-0.9,3.1-1.7,5-2.3c0.5-0.1,1-0.2,1.5-0.3l0.8-0.1c0.3,0,0.5,0,0.8,0
						c0.3,0,0.5,0,0.8,0.1c0.3,0,0.5,0.1,0.8,0.2c0.5,0.1,1,0.3,1.5,0.5c0.9,0.5,1.7,1.1,2.4,1.9c0.6,0.8,1.1,1.6,1.4,2.5
						c0.1,0.3-0.1,0.7-0.4,0.8C281.1,81.5,280.8,81.4,280.6,81.1L280.6,81.1z"/>
				</g>
			</g>
			<g>
				<g>
					<path class="st9" d="M90.5,51.6c0.2-0.6,0.5-1.1,0.9-1.6c0.2-0.2,0.4-0.5,0.6-0.7c0.2-0.2,0.5-0.4,0.8-0.5
						c1.1-0.7,2.5-0.8,3.8-0.6c0.3,0,0.6,0.1,0.9,0.2c0.3,0.1,0.6,0.2,0.9,0.3c0.5,0.2,1.1,0.5,1.6,0.8c0.5,0.3,1,0.6,1.5,0.9
						c0.5,0.3,1,0.7,1.4,1.1c1.8,1.5,3.4,3.4,4.6,5.4c0.6,1,1.1,2.1,1.5,3.2c0.2,0.6,0.4,1.1,0.5,1.7c0.1,0.6,0.2,1.1,0.3,1.9
						c0.1,1-0.6,1.9-1.6,2c-0.9,0.1-1.7-0.5-1.9-1.3l-0.1-0.2c-0.1-0.4-0.3-0.9-0.4-1.3c-0.2-0.5-0.3-0.9-0.5-1.4
						c-0.4-0.9-0.8-1.8-1.2-2.7c-0.9-1.8-2-3.4-3.3-4.9c-0.3-0.4-0.7-0.7-1.1-1.1c-0.4-0.4-0.7-0.7-1.1-1c-0.2-0.2-0.4-0.3-0.6-0.4
						l-0.6-0.4c-0.2-0.1-0.4-0.2-0.6-0.3c-0.2-0.1-0.4-0.2-0.6-0.3c-0.9-0.3-1.8-0.4-2.6-0.2c-0.9,0.2-1.7,0.9-2.4,1.7l0,0
						c-0.1,0.1-0.3,0.1-0.4,0C90.5,51.8,90.4,51.7,90.5,51.6z"/>
				</g>
			</g>
			<g>
				<g>
					<g>
						<path class="st10" d="M115,169.6c0,0,19.8-14.4,26.6-3.9c6.8,10.5-7.4,22.3-19.9,22.3"/>
					</g>
					<g>
						<path class="st6" d="M121.8,188.3C121.8,188.3,121.8,188.3,121.8,188.3l-0.1-0.6c0,0,0,0,0.1,0c7.8,0,16.5-4.8,19.8-11
							c1.4-2.6,2.5-6.6-0.3-10.8c-1.2-1.9-3-3.1-5.3-3.5c-8.3-1.5-20.8,7.4-20.9,7.5l-0.4-0.5c0.5-0.4,12.8-9.2,21.4-7.6
							c2.4,0.5,4.4,1.7,5.7,3.8c2.3,3.6,2.4,7.5,0.3,11.5C138.7,183.5,129.9,188.3,121.8,188.3z"/>
					</g>
				</g>
				<g>
					<g>
						<path class="st4" d="M114.8,169.3c0.9-1.1,1.9-2.1,3-3.1c1.1-0.9,2.2-1.8,3.4-2.6c2.4-1.5,5-2.8,7.9-3.6
							c1.4-0.4,3-0.6,4.6-0.7c1.6,0,3.3,0.2,4.9,0.9c1.6,0.6,3.1,1.7,4.2,3.1l0.8,1l0.6,1c0.4,0.7,0.7,1.5,1,2.3
							c0.5,1.6,0.7,3.3,0.5,5c-0.2,1.7-0.6,3.3-1.3,4.7c-1.4,2.9-3.5,5.2-5.9,7c-1.2,0.9-2.5,1.7-3.8,2.4c-1.3,0.7-2.7,1.2-4.1,1.6
							c-2.8,0.7-5.9,0.9-8.7-0.1c-0.2-0.1-0.3-0.3-0.2-0.5c0-0.1,0.1-0.2,0.2-0.2l0,0c2.7-1,5-1.9,7.3-3.1c1.1-0.6,2.2-1.1,3.3-1.8
							c1.1-0.7,2.1-1.4,3-2.1c1.9-1.5,3.5-3.3,4.6-5.3c1.1-2,1.4-4.2,0.8-6.2c-0.2-0.5-0.4-1-0.6-1.5l-0.4-0.7
							c-0.2-0.2-0.3-0.4-0.5-0.6c-0.7-0.8-1.4-1.3-2.4-1.6c-1.9-0.6-4.3-0.4-6.7,0.1c-2.4,0.5-4.9,1.4-7.3,2.3
							c-2.5,0.9-5,1.9-7.7,2.8l0,0c-0.2,0.1-0.4,0-0.5-0.2C114.7,169.6,114.7,169.4,114.8,169.3z"/>
					</g>
				</g>
			</g>
			<g>
				<g>
					<g>
						<path class="st10" d="M210.9,186.6c0,0-12.2-21.2-22.7-14.5c-10.5,6.8-2.4,23.4,9,28.5"/>
					</g>
					<g>
						<path class="st6" d="M197,200.9c-7.4-3.3-13.4-11.3-14-18.7c-0.3-4.5,1.4-8,5-10.4c2-1.3,4.3-1.7,6.7-1.1
							c8.5,2.1,16.1,15.1,16.4,15.7l-0.6,0.3c-0.1-0.1-7.8-13.4-16-15.4c-2.2-0.5-4.3-0.2-6.2,1c-4.3,2.8-4.9,6.8-4.7,9.8
							c0.5,7,6.5,15,13.6,18.2L197,200.9z"/>
					</g>
				</g>
				<g>
					<g>
						<path class="st4" d="M210.5,186.8c-2.1-1.9-4-3.8-5.9-5.7c-1.9-1.8-3.8-3.6-5.7-5.1c-2-1.5-4-2.7-6-2.9
							c-1-0.1-1.9,0.1-2.8,0.5c-0.2,0.1-0.4,0.2-0.7,0.4l-0.7,0.5c-0.4,0.3-0.8,0.7-1.2,1.1c-1.4,1.6-2,3.7-1.8,6
							c0.2,2.3,0.9,4.6,2,6.8c0.5,1.1,1.2,2.2,1.9,3.2c0.7,1,1.5,2,2.3,3c1.6,2,3.4,3.8,5.4,5.8l0,0c0.2,0.2,0.2,0.4,0,0.6
							c-0.1,0.1-0.2,0.1-0.3,0.1c-2.9-0.3-5.7-1.7-8-3.5c-1.1-0.9-2.2-2-3.1-3.2c-1-1.1-1.8-2.4-2.5-3.7c-1.4-2.6-2.4-5.6-2.5-8.8
							c0-1.6,0.2-3.3,0.7-4.8c0.5-1.6,1.4-3.1,2.5-4.3c0.6-0.6,1.2-1.2,1.8-1.7l1-0.7l1.1-0.6c1.5-0.8,3.4-1.2,5.1-1.1
							c1.7,0.1,3.4,0.6,4.8,1.2c1.4,0.7,2.7,1.5,3.9,2.5c2.3,1.9,4.2,4.1,5.7,6.5c0.8,1.2,1.5,2.4,2.1,3.7c0.6,1.3,1.1,2.6,1.5,4
							c0.1,0.2-0.1,0.4-0.3,0.5C210.8,186.9,210.6,186.9,210.5,186.8L210.5,186.8z"/>
					</g>
				</g>
			</g>
			<g>
				<g>
					<path class="st9" d="M221.4,87.4c5.4,8.9-12,15.1-15.6,7.3C202.1,86.9,217.2,80.4,221.4,87.4z"/>
				</g>
			</g>
			<g>
				<g>
					<path class="st9" d="M133.9,76.8c-7.4,7.4,8,17.6,13.4,10.9C152.7,80.9,139.6,71,133.9,76.8z"/>
				</g>
			</g>
			<g>
				<g>
					<g>
						<path class="st10" d="M192.6,243.3c0,0,5.1-24,17.2-20.7c12,3.2,9.4,21.6,0.2,29.9"/>
					</g>
					<g>
						<path class="st6" d="M210.2,252.7l-0.4-0.5c5.8-5.2,9-14.6,7.4-21.5c-0.7-2.9-2.5-6.6-7.4-7.9c-2.2-0.6-4.3-0.3-6.2,0.9
							c-7.2,4.4-10.5,19.4-10.5,19.6l-0.6-0.1c0.1-0.6,3.4-15.4,10.8-20c2.1-1.3,4.4-1.6,6.7-1c4.1,1.1,6.9,4,7.9,8.3
							C219.5,237.8,216.2,247.3,210.2,252.7z"/>
					</g>
				</g>
				<g>
					<g>
						<path class="st4" d="M192.3,243.3c-0.1-1.4,0-2.9,0.2-4.3c0.2-1.4,0.4-2.8,0.8-4.2c0.7-2.7,1.8-5.4,3.5-7.9
							c0.8-1.3,1.8-2.5,2.9-3.5c1.2-1.1,2.6-2,4.2-2.6c1.6-0.6,3.5-0.8,5.2-0.5l1.3,0.3l1.2,0.4c0.8,0.3,1.5,0.6,2.2,1
							c1.4,0.8,2.7,2,3.7,3.3c1,1.3,1.7,2.9,2.2,4.4c0.9,3.1,0.9,6.2,0.3,9.2c-0.3,1.5-0.7,2.9-1.2,4.3c-0.5,1.4-1.2,2.7-2,4
							c-1.6,2.5-3.8,4.6-6.5,5.8c-0.2,0.1-0.4,0-0.5-0.2c0-0.1,0-0.2,0-0.3l0,0c1.3-2.5,2.4-4.8,3.4-7.2c0.5-1.2,0.9-2.3,1.3-3.5
							c0.3-1.2,0.6-2.4,0.8-3.6c0.4-2.4,0.4-4.9-0.1-7c-0.5-2.2-1.7-4-3.6-5.1c-0.5-0.3-0.9-0.5-1.5-0.7l-0.8-0.2
							c-0.3,0-0.5-0.1-0.8-0.1c-1-0.1-1.9,0-2.8,0.4c-1.8,0.8-3.4,2.6-4.8,4.6c-1.4,2-2.7,4.3-3.9,6.6c-1.2,2.3-2.5,4.8-3.8,7.2l0,0
							c-0.1,0.2-0.3,0.3-0.5,0.1C192.3,243.5,192.3,243.4,192.3,243.3z"/>
					</g>
				</g>
				<g>
					<g>
						<path class="st4" d="M215.6,228.6l-5.3,6.3l2-8c0.3-1,1.3-1.6,2.3-1.4c1,0.3,1.6,1.3,1.4,2.3
							C215.9,228.1,215.8,228.4,215.6,228.6z"/>
					</g>
				</g>
				<g>
					<g>
						<path class="st4" d="M208.3,225.3l-4.6,7l1.2-8.3c0.1-1,1.1-1.7,2.1-1.6c1,0.1,1.7,1.1,1.6,2.1
							C208.6,224.8,208.5,225.1,208.3,225.3z"/>
					</g>
				</g>
			</g>
			<g>
				<g>
					<g>
						<path class="st10" d="M111.3,232.1c0,0-1.7-24.4-14.1-22.9c-12.4,1.5-12.4,20-4.3,29.6"/>
					</g>
					<g>
						<path class="st6" d="M92.7,239c-5.2-6.2-7.1-16.1-4.4-22.9c1.6-4.2,4.7-6.6,9-7.2c2.4-0.3,4.6,0.4,6.5,1.9
							c6.7,5.6,7.9,20.6,7.9,21.3l-0.6,0c0-0.2-1.2-15.5-7.7-20.8c-1.8-1.5-3.8-2.1-6-1.8c-5,0.6-7.4,4-8.5,6.8
							c-2.6,6.5-0.7,16.3,4.3,22.3L92.7,239z"/>
					</g>
				</g>
				<g>
					<g>
						<path class="st4" d="M111,232.2c-1-1.3-1.6-2.5-2.1-3.8c-0.5-1.3-0.7-2.5-1.1-3.8c-0.7-2.5-1.5-5-2.6-7.2
							c-1-2.2-2.4-4.2-4.1-5.2c-0.8-0.5-1.8-0.8-2.8-0.8c-0.3,0-0.5,0-0.8,0l-0.8,0.1c-0.5,0.1-1.1,0.3-1.5,0.5
							c-2,0.8-3.5,2.4-4.4,4.5c-0.9,2.1-1.3,4.6-1.1,7c0.1,1.2,0.3,2.5,0.5,3.7c0.2,1.2,0.4,2.4,0.7,3.7c0.5,2.5,1.3,4.9,2.3,7.6
							l0,0c0.1,0.2,0,0.4-0.2,0.5c-0.1,0-0.2,0-0.3,0c-2.5-1.5-4.4-3.9-5.7-6.6c-0.6-1.3-1.1-2.7-1.5-4.2c-0.3-1.5-0.4-3-0.4-4.5
							c0.1-3,0.4-6.1,1.7-9c0.6-1.5,1.5-2.9,2.7-4.1c1.1-1.2,2.6-2.2,4.1-2.8c0.8-0.3,1.6-0.6,2.4-0.7c0.4-0.1,0.8-0.1,1.2-0.2
							l1.3-0.1c1.7,0,3.5,0.4,5.1,1.2c1.5,0.8,2.8,2,3.8,3.2c1,1.2,1.8,2.6,2.5,3.9c1.3,2.7,2.1,5.5,2.7,8.3
							c0.5,2.8,0.9,5.7-0.7,8.6c-0.1,0.2-0.4,0.3-0.5,0.2C111.1,232.3,111,232.2,111,232.2L111,232.2z"/>
					</g>
				</g>
				<g>
					<g>
						<path class="st4" d="M100.1,209.9l0.8,9.3l-4.3-8.2c-0.5-0.9-0.1-2,0.8-2.5c0.9-0.5,2-0.1,2.5,0.8
							C100,209.4,100.1,209.7,100.1,209.9z"/>
					</g>
				</g>
				<g>
					<g>
						<path class="st4" d="M94.3,212.7l0.4,8.4l-3.9-7.4c-0.5-0.9-0.1-2,0.8-2.5c0.9-0.5,2-0.1,2.5,0.8
							C94.3,212.1,94.3,212.4,94.3,212.7z"/>
					</g>
				</g>
			</g>
			<g>
				<g>
					<path class="st4" d="M132.1,174.3c1.5-0.9,3-1.8,4.5-2.6c0.8-0.4,1.5-0.8,2.4-1.2c0.4-0.2,0.8-0.4,1.3-0.5
						c0.2-0.1,0.5-0.2,0.7-0.2c0.2-0.1,0.6-0.1,1-0.1c0.8,0,1.4,0.6,1.4,1.3c0,0.8-0.6,1.4-1.3,1.4c-0.1,0-0.1,0-0.2,0l-0.2,0
						c-0.1,0-0.1-0.1-0.3-0.1l-0.2,0l-0.3,0c-0.4,0-0.8,0.1-1.2,0.2c-0.8,0.1-1.6,0.3-2.5,0.5C135.4,173.4,133.7,173.8,132.1,174.3z
						"/>
				</g>
			</g>
			<g>
				<g>
					<path class="st4" d="M130.3,168.6c1.6-0.9,3.2-1.8,4.8-2.6c0.8-0.4,1.7-0.8,2.6-1.1c0.5-0.2,0.9-0.3,1.5-0.4
						c0.3,0,0.6-0.1,0.9-0.1c0.3,0,0.7,0,1.3,0.3c0.6,0.4,0.8,1.3,0.4,1.9c-0.4,0.6-1.3,0.8-1.9,0.4c0.1,0.1,0.1,0,0-0.1
						c-0.1,0-0.3-0.1-0.5-0.1c-0.4,0-0.8,0-1.2,0c-0.8,0.1-1.7,0.2-2.6,0.4C133.8,167.7,132,168.1,130.3,168.6z"/>
				</g>
			</g>
			<g>
				<g>
					<path class="st4" d="M185,176.5c0.9,0.5,1.6,1,2.4,1.5c0.8,0.5,1.5,1.1,2.3,1.6c0.7,0.6,1.5,1.2,2.1,1.9
						c0.6,0.7,1.3,1.5,1.4,2.4c-0.3-0.9-1.1-1.4-1.8-1.9c-0.8-0.5-1.6-0.9-2.4-1.2c-0.8-0.4-1.7-0.7-2.5-1c-0.8-0.3-1.7-0.6-2.5-0.8
						c-0.7-0.2-1.2-1-1-1.7c0.2-0.7,1-1.2,1.7-1C184.8,176.4,184.9,176.5,185,176.5z"/>
				</g>
			</g>
			<g>
				<g>
					<path class="st4" d="M188.9,172.5c1.3,0.9,2.6,1.8,3.9,2.7c0.6,0.5,1.3,0.9,1.9,1.4c0.6,0.5,1.3,1,1.8,1.6
						c-0.6-0.5-1.4-0.7-2.1-1c-0.7-0.3-1.5-0.5-2.2-0.8c-1.5-0.5-3-1-4.4-1.4l0,0c-0.7-0.2-1.2-1-0.9-1.7c0.2-0.7,1-1.2,1.7-0.9
						C188.6,172.4,188.8,172.4,188.9,172.5z"/>
				</g>
			</g>
			<g>
				<g>
					<g>
						<path class="st4" d="M169.5,122.7c0,0-0.1,0-0.1,0c-3.3-0.1-5.7-4.8-6.2-5.7c-0.4-0.9,0-2,0.9-2.4c0.9-0.4,2,0,2.4,0.9l0,0
							c0.8,1.8,2.3,3.6,3,3.6c0,0,0,0,0,0c1,0,2.8-1.4,3.8-2.5c0.7-0.8,1.8-0.8,2.6-0.1c0.8,0.7,0.8,1.8,0.1,2.6
							C175.4,119.6,172.5,122.7,169.5,122.7z"/>
					</g>
				</g>
				<g>
					<g>
						<path class="st4" d="M169,126c-0.1,0-0.1,0-0.2,0c-1-0.1-1.7-1-1.6-2l0.4-3.2c0.1-1,1-1.7,2-1.6c1,0.1,1.7,1,1.6,2l-0.4,3.2
							C170.7,125.3,169.9,126,169,126z"/>
					</g>
				</g>
				<g>
					<g>
						<path class="st4" d="M173.8,128.7c-2.3,0-4.3-1.3-5.4-2.3c-1.4,1.1-2.8,1.5-4.2,1.1c-2.9-0.7-4.2-4.1-4.3-4.5
							c-0.3-0.7,0.1-1.5,0.8-1.8c0.7-0.3,1.5,0.1,1.8,0.8c0.2,0.6,1.1,2.4,2.3,2.7c0.9,0.2,2-0.6,2.7-1.3c0.3-0.3,0.6-0.4,1-0.4
							c0.4,0,0.7,0.2,1,0.4c0.7,0.7,2.8,2.4,4.7,2.3c1-0.1,2-0.7,2.8-2c0.4-0.6,1.3-0.8,1.9-0.4c0.6,0.4,0.8,1.3,0.4,1.9
							c-1.3,2-2.9,3-4.8,3.2C174.1,128.7,174,128.7,173.8,128.7z"/>
					</g>
				</g>
			</g>
			<g>
				<g>
					
						<ellipse transform="matrix(0.9878 -0.1559 0.1559 0.9878 -7.3009 23.3572)" class="st7" cx="145.3" cy="58.2" rx="7.8" ry="4.6"/>
				</g>
			</g>
			<g>
				<g>
					<g>
						<path class="st4" d="M79.1,114.4c-1.5-0.3-2.9-0.8-4.2-1.4c-1.3-0.6-2.5-1.3-3.7-2.1c-1.2-0.8-2.4-1.6-3.5-2.5
							c-1.1-0.9-2.2-1.9-3.2-3.1c-0.2-0.3-0.2-0.7,0.1-0.9c0.2-0.1,0.4-0.2,0.6-0.1c1.5,0.4,2.8,0.9,4.1,1.5c1.3,0.6,2.6,1.3,3.8,2
							c1.2,0.7,2.4,1.5,3.5,2.4c1.1,0.9,2.2,1.9,3.1,3.1c0.2,0.3,0.2,0.7-0.1,0.9C79.5,114.4,79.3,114.4,79.1,114.4z"/>
					</g>
				</g>
				<g>
					<g>
						<path class="st4" d="M76.3,121c-1.3,0.3-2.6,0.4-3.8,0.3c-1.2,0-2.4-0.2-3.6-0.5c-1.2-0.2-2.4-0.6-3.6-1
							c-1.2-0.4-2.3-0.9-3.5-1.5c-0.3-0.2-0.4-0.6-0.2-0.9c0.1-0.2,0.3-0.3,0.4-0.3c1.3-0.2,2.5-0.3,3.8-0.2c1.2,0,2.5,0.2,3.7,0.4
							c1.2,0.2,2.4,0.5,3.6,0.8c1.2,0.4,2.3,0.9,3.4,1.7c0.3,0.2,0.4,0.6,0.2,0.9C76.6,120.8,76.4,120.9,76.3,121z"/>
					</g>
				</g>
				<g>
					<g>
						<path class="st4" d="M76.3,129.3c-1.4,0.7-2.9,1.1-4.3,1.4c-1.5,0.3-2.9,0.5-4.4,0.6c-1.5,0.1-3,0.1-4.5,0.1
							c-1.5-0.1-3-0.2-4.5-0.5c-0.3-0.1-0.6-0.4-0.5-0.8c0-0.2,0.2-0.4,0.4-0.5c1.4-0.6,2.9-1,4.3-1.3c1.5-0.3,2.9-0.5,4.4-0.7
							c1.5-0.2,3-0.2,4.4-0.2c1.5,0.1,3,0.2,4.5,0.6c0.3,0.1,0.5,0.5,0.4,0.8C76.6,129.1,76.5,129.2,76.3,129.3z"/>
					</g>
				</g>
			</g>
			<g>
				<g>
					<g>
						<path class="st4" d="M272.2,138c1.2-1,2.5-1.7,3.8-2.3c1.3-0.6,2.7-1.1,4-1.5c1.4-0.4,2.8-0.8,4.2-1.1
							c1.4-0.3,2.9-0.5,4.4-0.5c0.4,0,0.6,0.3,0.6,0.6c0,0.2-0.1,0.4-0.3,0.5c-1.2,0.9-2.5,1.6-3.8,2.2c-1.3,0.6-2.6,1.2-4,1.6
							c-1.3,0.5-2.7,0.9-4.1,1.2c-1.4,0.3-2.9,0.5-4.4,0.4c-0.4,0-0.6-0.3-0.6-0.7C272,138.3,272.1,138.1,272.2,138z"/>
					</g>
				</g>
				<g>
					<g>
						<path class="st4" d="M273.9,145c1.3-0.5,2.5-0.7,3.7-0.8c1.2-0.1,2.5-0.1,3.7,0c1.2,0.1,2.4,0.3,3.6,0.5
							c1.2,0.3,2.4,0.6,3.6,1.1c0.3,0.1,0.5,0.5,0.3,0.9c-0.1,0.2-0.2,0.3-0.4,0.4c-1.3,0.4-2.5,0.6-3.7,0.7
							c-1.2,0.1-2.5,0.1-3.7,0.1c-1.2,0-2.4-0.2-3.7-0.4c-1.2-0.3-2.4-0.6-3.6-1.2c-0.3-0.2-0.4-0.6-0.3-0.9
							C273.6,145.1,273.7,145,273.9,145z"/>
					</g>
				</g>
				<g>
					<g>
						<path class="st4" d="M272.1,153.1c1.6-0.1,3.1,0.2,4.5,0.5c1.5,0.3,2.9,0.7,4.3,1.3c1.4,0.5,2.8,1.1,4.1,1.7
							c1.3,0.7,2.7,1.4,3.9,2.3c0.3,0.2,0.3,0.6,0.1,0.9c-0.1,0.2-0.3,0.3-0.5,0.3c-1.5,0-3-0.3-4.5-0.6c-1.5-0.3-2.9-0.7-4.3-1.1
							c-1.4-0.4-2.8-1-4.1-1.6c-1.3-0.7-2.7-1.4-3.9-2.4c-0.3-0.2-0.3-0.6-0.1-0.9C271.8,153.2,272,153.1,272.1,153.1z"/>
					</g>
				</g>
			</g>
			<g>
				<g>
					<g>
						<g>
							<path class="st4" d="M223.2,120c-0.6-6.7-5.6-11.8-11.1-11.4c-5.5,0.4-9.5,6.3-8.9,13c0.6,6.7,5.6,11.8,11.1,11.4
								C219.8,132.5,223.8,126.7,223.2,120z"/>
						</g>
						<g>
							<path class="st4" d="M213.6,133.3c-5.4,0-10.2-5.1-10.8-11.7c-0.3-3.7,0.7-7.4,2.9-9.9c1.7-2,3.9-3.2,6.4-3.4
								c5.7-0.5,10.9,4.8,11.5,11.7l0,0c0.3,3.7-0.7,7.4-2.9,9.9c-1.7,2-3.9,3.2-6.4,3.4C214.1,133.3,213.8,133.3,213.6,133.3z
								 M212.8,108.9c-0.2,0-0.4,0-0.6,0c-2.2,0.2-4.3,1.3-5.9,3.2c-2.1,2.4-3.1,5.9-2.7,9.4c0.6,6.5,5.4,11.5,10.8,11.1
								c2.2-0.2,4.3-1.3,5.9-3.2c2.1-2.4,3.1-5.9,2.7-9.4l0,0C222.3,113.7,217.8,108.9,212.8,108.9z"/>
						</g>
					</g>
				</g>
				<g>
					<g>
						<path class="st5" d="M215.8,117.2c-0.3-2.9-2.3-5.1-4.6-4.9c-2.3,0.2-3.9,2.7-3.6,5.6c0.3,2.9,2.3,5.1,4.6,4.9
							C214.4,122.6,216,120.1,215.8,117.2z"/>
					</g>
					<g>
						<path class="st6" d="M211.9,123.1c-2.3,0-4.4-2.3-4.6-5.2c-0.2-1.7,0.3-3.3,1.3-4.5c0.7-0.8,1.6-1.3,2.6-1.4
							c2.4-0.2,4.6,2.1,4.9,5.2l0,0c0.2,1.7-0.3,3.3-1.3,4.5c-0.7,0.8-1.6,1.3-2.6,1.4C212.1,123.1,212,123.1,211.9,123.1z
							 M211.5,112.6c-0.1,0-0.2,0-0.2,0c-0.8,0.1-1.6,0.5-2.2,1.2c-0.9,1-1.3,2.5-1.1,4c0.2,2.7,2.2,4.8,4.3,4.6
							c0.8-0.1,1.6-0.5,2.2-1.2c0.9-1,1.3-2.5,1.1-4C215.2,114.6,213.5,112.6,211.5,112.6z"/>
					</g>
				</g>
			</g>
		</g>
	</g>
	<g>
		<g>
			<path class="st1" d="M421,40.2h31.2v125.2h-31.3v-46.6h-45.1v46.6h-31.2V40.2h31.2v53.8H421V40.2z"/>
			<path class="st1" d="M557.9,165.3l-6-19.9h-47.6l-5.9,19.9h-32.3l37.7-125.2h48.6l37.7,125.2H557.9z M511.7,120.6h32.9
				l-16.4-54.9L511.7,120.6z"/>
			<path class="st1" d="M656.1,40.2c16,0,28.4,4.1,37.1,12.4c8.8,8.3,13.1,19.2,13.1,32.8c0,13.6-4.4,24.5-13.1,32.8
				c-8.8,8.3-21.1,12.4-37.1,12.4h-20.8v34.7h-31.2V40.2H656.1z M652.8,105.7c6.6,0,11.9-1.9,16.1-5.8c4.2-3.9,6.2-8.7,6.2-14.4
				c0.1-5.8-2-10.6-6.2-14.6c-4.2-4-9.6-5.9-16.2-5.9h-17.5v40.8H652.8z"/>
			<path class="st1" d="M776.1,40.2c16,0,28.4,4.1,37.1,12.4c8.8,8.3,13.1,19.2,13.1,32.8c0,13.6-4.4,24.5-13.1,32.8
				c-8.8,8.3-21.1,12.4-37.1,12.4h-20.8v34.7H724V40.2H776.1z M772.7,105.7c6.6,0,11.9-1.9,16.1-5.8c4.2-3.9,6.2-8.7,6.2-14.4
				c0.1-5.8-2-10.6-6.2-14.6c-4.2-4-9.6-5.9-16.2-5.9h-17.5v40.8H772.7z"/>
			<path class="st1" d="M915.4,40.2H950l-44.3,84.2v40.9h-31.2v-40.9l-44.3-84.2h34.6l25.3,53.5L915.4,40.2z"/>
		</g>
		<g>
			<path class="st1" d="M344.5,177.5h87.6v24.8h-56.4v26.4h51v24.9h-51v24.4h59.1v24.8h-90.3V177.5z"/>
			<path class="st1" d="M556.1,302.7l-6-19.9h-47.6l-5.9,19.9h-32.3L502,177.5h48.6l37.7,125.2H556.1z M509.9,258h32.9l-16.4-54.9
				L509.9,258z"/>
			<path class="st1" d="M696.1,177.5v24.8h-31.2v100.4h-31.3V202.3h-31.3v-24.8H696.1z"/>
		</g>
	</g>
</g>
</svg>
